<?xml version="1.0" standalone="no"?>
<!DOCTYPE svg PUBLIC "-//W3C//DTD SVG 20010904//EN"
 "http://www.w3.org/TR/2001/REC-SVG-20010904/DTD/svg10.dtd">
<svg version="1.0" xmlns="http://www.w3.org/2000/svg"
 width="1774.000000pt" height="887.000000pt" viewBox="0 0 1774.000000 887.000000"
 preserveAspectRatio="xMidYMid meet">

<g transform="translate(0.000000,887.000000) scale(0.100000,-0.100000)"
fill="#000000" stroke="none">
<path d="M2625 7936 c-239 -62 -416 -227 -487 -456 -32 -104 -33 -293 -1 -392
64 -204 226 -368 426 -434 69 -23 100 -28 197 -28 83 0 132 5 174 18 66 19
167 68 205 97 13 11 28 19 33 19 5 0 345 -334 755 -742 409 -409 754 -748 766
-755 28 -16 1072 -19 1082 -3 3 6 -10 57 -31 115 l-37 105 -461 0 -461 0 -729
729 -728 728 15 29 c55 110 82 269 66 395 -33 262 -205 477 -444 556 -95 31
-258 41 -340 19z m315 -242 c176 -83 269 -245 257 -447 -4 -73 -10 -99 -38
-155 -43 -88 -124 -168 -214 -213 -66 -32 -74 -34 -180 -34 -103 0 -114 2
-175 31 -95 46 -142 84 -188 154 -125 186 -103 420 52 576 93 92 177 124 321
121 88 -2 108 -6 165 -33z"/>
<path d="M14870 7943 c-107 -18 -244 -89 -332 -171 -168 -158 -242 -379 -203
-603 8 -51 29 -124 45 -163 l30 -71 -729 -727 -730 -728 -483 0 -483 0 -41
-110 c-23 -60 -39 -112 -36 -115 3 -3 252 -5 554 -5 448 0 555 3 581 14 18 8
344 327 772 755 407 408 744 741 749 741 5 0 33 -16 62 -35 71 -47 129 -71
218 -90 332 -68 654 126 758 457 19 61 23 94 22 198 -1 107 -4 136 -27 201
-96 280 -343 462 -621 458 -45 -1 -92 -4 -106 -6z m296 -253 c339 -167 331
-650 -14 -813 -63 -30 -74 -32 -177 -32 -106 0 -114 2 -180 34 -92 46 -176
129 -217 217 -26 55 -32 82 -36 160 -4 79 -1 104 19 166 30 94 95 180 177 235
90 60 137 73 258 70 91 -2 106 -5 170 -37z"/>
<path d="M8713 7814 c-304 -66 -585 -372 -820 -894 -59 -131 -68 -153 -133
-345 -26 -77 -52 -139 -56 -138 -5 1 -83 17 -174 37 -224 48 -372 66 -585 73
-204 7 -337 -5 -484 -43 -406 -104 -606 -390 -547 -780 50 -334 263 -735 603
-1138 59 -70 112 -134 117 -141 7 -9 -14 -41 -76 -112 -260 -301 -470 -634
-572 -908 -81 -219 -103 -447 -57 -595 60 -196 180 -324 384 -408 163 -68 319
-94 562 -95 229 0 523 36 746 93 42 11 84 20 92 20 9 0 25 -35 47 -102 137
-434 380 -859 596 -1044 180 -154 322 -209 518 -202 94 4 123 9 187 35 236 93
466 341 647 695 82 160 117 242 193 453 39 108 63 161 73 163 9 2 65 -8 124
-22 468 -112 914 -120 1208 -21 129 43 211 92 295 175 157 156 208 347 164
616 -50 310 -306 771 -644 1161 -39 45 -71 84 -71 88 0 3 34 45 76 93 78 89
239 300 311 407 99 148 224 391 276 535 61 171 83 396 53 540 -74 349 -405
539 -942 540 -226 0 -465 -30 -723 -91 -68 -16 -125 -28 -126 -27 -1 2 -20 62
-43 133 -129 400 -329 776 -521 979 -217 229 -459 323 -698 270z m228 -220
c265 -79 505 -380 702 -879 45 -115 117 -323 117 -339 0 -3 -64 -26 -142 -52
-190 -63 -489 -181 -681 -268 -43 -20 -82 -36 -87 -36 -5 0 -71 28 -147 61
-196 87 -443 183 -620 241 -92 30 -153 55 -153 63 0 18 71 222 120 347 53 132
172 362 240 464 80 119 133 182 215 255 152 135 300 183 436 143z m-1880
-1274 c179 -18 319 -40 454 -72 72 -17 132 -32 134 -34 1 -1 -8 -51 -23 -111
-57 -243 -105 -523 -137 -805 l-12 -107 -116 -93 c-145 -116 -314 -264 -453
-397 l-107 -102 -39 43 c-395 430 -664 957 -639 1254 22 253 202 381 602 428
67 7 239 5 336 -4z m4064 -19 c270 -58 400 -169 435 -373 46 -262 -168 -730
-539 -1177 -47 -57 -96 -116 -107 -130 l-22 -26 -119 115 c-133 129 -275 254
-438 384 -60 49 -113 91 -117 95 -3 3 -11 56 -18 116 -20 191 -70 493 -116
699 -24 110 -44 203 -44 206 0 15 335 82 525 105 162 19 437 13 560 -14z
m-3085 -200 c161 -54 499 -186 525 -205 13 -9 -3 -22 -107 -77 -178 -96 -328
-186 -541 -326 -104 -68 -190 -123 -192 -123 -2 0 -2 15 1 33 46 329 65 440
116 660 15 66 24 87 36 87 10 0 82 -22 162 -49z m1785 37 c16 -42 79 -350 104
-503 40 -246 41 -255 31 -255 -5 0 -88 52 -184 115 -181 119 -389 243 -558
334 -54 29 -98 56 -98 60 0 16 543 223 665 254 33 8 35 8 40 -5z m-833 -444
c147 -73 406 -222 573 -328 146 -92 409 -272 423 -288 31 -38 45 -700 22
-1071 l-13 -208 -61 -43 c-154 -109 -424 -286 -556 -363 -80 -47 -170 -100
-200 -118 -85 -51 -318 -165 -336 -165 -22 0 -357 177 -521 275 -146 88 -542
350 -591 392 -31 27 -33 33 -44 133 -16 140 -16 898 0 1049 9 87 16 117 29
127 58 45 309 215 428 291 255 163 655 382 698 383 10 0 77 -30 149 -66z
m-1536 -856 c-12 -99 -16 -477 -7 -652 6 -105 9 -192 6 -194 -12 -12 -495 421
-495 443 0 22 468 444 493 445 5 0 6 -19 3 -42z m2964 -106 c69 -60 168 -151
220 -201 l95 -90 -130 -128 c-136 -134 -351 -323 -367 -323 -6 0 -6 35 -1 93
4 50 7 251 7 444 l-1 352 26 -18 c14 -11 82 -68 151 -129z m-3506 -569 c159
-154 457 -407 554 -471 15 -10 22 -24 22 -47 0 -96 73 -539 136 -818 19 -87
33 -161 31 -163 -6 -7 -188 -50 -287 -69 -319 -60 -698 -60 -900 1 -258 77
-375 251 -341 505 38 287 256 688 579 1066 48 56 89 102 91 102 2 1 54 -47
115 -106z m4017 62 c81 -88 222 -272 314 -410 281 -422 381 -776 280 -989 -30
-63 -111 -144 -181 -179 -74 -37 -198 -73 -301 -87 -113 -16 -444 -8 -583 14
-170 26 -415 78 -428 90 -3 3 11 77 31 163 20 87 45 208 57 270 26 139 80 508
80 545 0 22 18 41 98 104 156 125 348 292 472 412 63 61 116 111 117 112 2 0
21 -20 44 -45z m-2994 -860 c208 -134 363 -227 536 -319 59 -32 105 -61 102
-66 -12 -20 -607 -242 -675 -252 -23 -3 -26 3 -51 107 -25 104 -100 505 -114
608 -3 26 -3 47 1 47 3 0 94 -56 201 -125z m2018 93 c-3 -18 -14 -89 -25 -158
-43 -274 -107 -559 -128 -567 -24 -10 -541 175 -660 236 l-35 18 114 60 c141
74 388 222 579 347 80 52 149 95 153 96 4 0 5 -15 2 -32z m-967 -664 c182 -81
433 -179 607 -236 83 -27 151 -51 153 -52 5 -6 -92 -274 -140 -386 -238 -556
-550 -864 -822 -810 -296 58 -572 412 -783 1005 -76 212 -79 189 24 220 191
58 540 193 723 278 41 20 83 36 93 36 10 1 75 -24 145 -55z"/>
<path d="M8800 5193 c-81 -8 -181 -38 -265 -78 -257 -124 -425 -390 -425 -675
1 -449 402 -811 833 -751 171 24 297 89 427 220 148 149 224 330 222 531 -2
292 -163 549 -429 683 -92 47 -266 80 -363 70z"/>
<path d="M1676 5044 c-150 -36 -314 -168 -390 -312 -50 -97 -80 -239 -71 -336
15 -160 81 -293 196 -400 285 -264 722 -203 934 129 31 49 75 160 75 190 0 13
219 15 1893 15 l1892 1 43 54 43 54 -48 60 -48 61 -1886 0 -1885 0 -13 51
c-52 201 -236 382 -442 433 -79 19 -213 20 -293 0z"/>
<path d="M15748 5036 c-190 -56 -355 -218 -411 -403 l-22 -73 -1907 0 -1906 0
-42 -52 c-23 -29 -44 -59 -47 -65 -3 -7 14 -35 37 -63 l42 -50 1910 -2 1911
-3 23 -68 c64 -189 203 -331 387 -394 72 -24 96 -28 202 -27 111 0 126 3 202
33 150 59 266 165 332 305 51 107 66 171 65 286 -1 110 -32 216 -90 311 -41
69 -162 185 -229 221 -130 70 -311 87 -457 44z"/>
<path d="M4320 3258 c-201 -200 -537 -534 -748 -743 -211 -209 -385 -382 -387
-384 -2 -2 -21 10 -42 26 -87 68 -193 110 -325 128 -63 8 -196 -11 -274 -39
-189 -69 -339 -225 -405 -421 -31 -92 -34 -286 -5 -380 34 -110 85 -195 171
-281 203 -205 498 -250 760 -116 101 52 229 182 277 282 87 181 90 420 7 583
l-21 40 724 718 723 718 421 0 c232 1 442 4 467 7 l45 6 40 109 40 109 -551 0
-551 0 -366 -362z m-1375 -1231 c254 -121 334 -437 167 -659 -54 -72 -148
-140 -224 -163 -71 -21 -183 -19 -257 4 -124 39 -210 114 -268 237 -59 125
-56 260 9 388 34 66 125 153 194 186 86 41 127 50 222 46 69 -3 94 -9 157 -39z"/>
<path d="M11905 3603 c4 -10 22 -58 39 -108 17 -49 36 -93 41 -97 6 -4 228 -8
495 -8 l485 -1 723 -719 c702 -699 722 -720 708 -742 -7 -13 -26 -59 -41 -103
-34 -100 -39 -251 -12 -355 80 -298 330 -494 632 -494 185 0 330 58 455 184
160 161 228 378 186 590 -62 308 -321 529 -626 533 -52 1 -120 -4 -150 -12
-74 -18 -196 -75 -243 -113 l-39 -30 -166 163 c-92 90 -427 422 -744 738 -317
316 -583 578 -590 582 -7 5 -271 9 -587 9 -542 0 -573 -1 -566 -17z m3164
-1544 c256 -59 405 -324 322 -572 -100 -298 -474 -396 -706 -185 -296 269
-110 760 290 767 28 0 70 -4 94 -10z"/>
</g>
</svg>
